<svg width="256" height="256" viewBox="0 0 256 256" fill="none" xmlns="http://www.w3.org/2000/svg">
<path d="M77.5491 10C89.6774 10 95.005 12.2281 101 19.4999C104 21.9999 110.988 21.9999 112.5 21.9999C123.385 21.9999 129 27 131.985 33.9448C127.58 33.3221 128.077 33 123.5 33C85.8197 33 53.2362 54.8224 37.6985 86.5183C25.0043 82.7937 16 73.4347 16 62.4781C16 53.7173 22.0327 45.3121 30.8066 40.7138C33.5035 39.3005 37 38.5 40 36.5C45 32.5 43.5 24.7834 52 17C60.5 9.21657 77.5491 10 77.5491 10Z" fill="#F9FBFF"/>
<path fill-rule="evenodd" clip-rule="evenodd" d="M123.777 32.4585C71.0342 32.4585 28.2774 75.2153 28.2774 127.958C28.2773 180.702 71.0341 223.458 123.777 223.458C176.521 223.458 219.277 180.702 219.277 127.958C219.277 75.2153 176.521 32.4585 123.777 32.4585ZM123.777 63.4585C87.6027 63.4585 58.2774 92.7838 58.2774 128.958C58.2773 165.133 87.6027 194.458 123.777 194.458C159.952 194.458 189.277 165.133 189.277 128.958C189.277 92.7838 159.952 63.4585 123.777 63.4585Z" fill="url(#paint0_linear_404_72)"/>
<path d="M169.878 159.023C164.842 161.444 159.554 158.979 156.027 154.644C150.715 148.113 142.979 144 134.367 144C124.267 144 117.928 147.261 113.766 154.873C111.743 158.572 109.177 164.581 105.004 165.185V165.185C89 167.5 76 179.412 76 196.962C76 214.511 88.9856 228.738 105.004 228.738V228.738C111.075 228.738 117.526 231.188 121.585 235.702C127.3 242.059 135.247 246 144.035 246C153.311 246 161.65 241.609 167.416 234.621C168.808 232.935 170.853 231.877 173.04 231.877V231.877C192.488 231.877 208.943 224.103 214.424 213.399C215.892 210.532 218.434 208.114 221.568 207.374C232.274 204.845 240 197.626 240 189.116C240 178.499 227.976 169.892 213.144 169.892C212.033 169.892 210.937 169.941 209.86 170.035C206.509 170.327 203.068 169.667 200.522 167.468C194.32 162.113 187.775 156.328 178.208 156.328C175.902 156.328 172.881 157.58 169.878 159.023Z" fill="#F9FBFF"/>
<defs>
<linearGradient id="paint0_linear_404_72" x1="88.2773" y1="190.458" x2="167.277" y2="71.4585" gradientUnits="userSpaceOnUse">
<stop stop-color="#348FFE"/>
<stop offset="0.495" stop-color="#4FC69E"/>
<stop offset="1" stop-color="#FFD20A"/>
</linearGradient>
</defs>
</svg>
