<?xml version="1.0" standalone="no"?>
<!DOCTYPE svg PUBLIC "-//W3C//DTD SVG 20010904//EN"
 "http://www.w3.org/TR/2001/REC-SVG-20010904/DTD/svg10.dtd">
<svg version="1.0" xmlns="http://www.w3.org/2000/svg"
 width="700.000000pt" height="700.000000pt" viewBox="0 0 700.000000 700.000000"
 preserveAspectRatio="xMidYMid meet">
<metadata>
Created by potrace 1.14, written by Peter Selinger 2001-2017
</metadata>
<g transform="translate(0.000000,700.000000) scale(0.100000,-0.100000)"
fill="#000000" stroke="none">
<path d="M1988 6725 c-2 -1 -32 -5 -68 -8 -97 -8 -216 -35 -300 -68 -199 -76
-303 -189 -405 -438 -31 -76 -70 -155 -87 -175 -29 -35 -92 -70 -208 -116
-135 -53 -248 -136 -336 -247 -208 -260 -192 -566 41 -798 45 -44 92 -88 105
-98 52 -38 167 -96 232 -117 l67 -22 -19 -47 c-10 -25 -33 -80 -50 -121 -47
-113 -104 -296 -126 -405 -45 -221 -58 -354 -58 -575 0 -195 13 -322 51 -510
150 -745 641 -1412 1305 -1770 35 -19 59 -44 97 -102 151 -227 364 -349 634
-363 218 -11 330 -59 475 -204 80 -79 137 -123 212 -164 227 -124 482 -135
715 -33 92 41 184 108 275 200 56 57 98 91 125 100 22 8 94 18 160 21 136 6
181 11 245 25 25 5 56 12 70 14 57 11 179 49 259 82 211 88 362 209 454 363
60 100 118 153 194 175 178 52 293 114 383 207 242 249 137 594 -228 749 -124
52 -238 74 -389 72 l-82 0 20 46 c11 26 27 60 34 77 100 218 179 536 202 820
12 146 6 421 -11 525 -2 14 -7 50 -11 80 -4 30 -9 62 -10 70 -2 8 -7 29 -10
45 -5 26 -13 60 -30 135 -44 191 -161 474 -280 675 -43 72 -65 106 -160 241
-157 224 -479 515 -742 672 -208 124 -524 256 -712 297 -160 35 -224 47 -315
57 l-108 12 -32 51 c-65 101 -130 155 -237 198 -79 32 -100 36 -214 42 -277
16 -295 22 -412 135 -153 148 -270 189 -555 195 -86 1 -158 2 -160 0z m1577
-1470 c67 -6 94 -10 170 -25 28 -6 60 -12 73 -15 12 -2 26 -6 30 -9 5 -3 23
-8 39 -11 85 -15 302 -110 435 -190 465 -284 774 -755 848 -1297 20 -148 16
-419 -9 -531 -6 -23 -13 -58 -16 -77 -13 -77 -52 -203 -97 -313 l-32 -77 -35
7 c-87 16 -154 7 -268 -40 -127 -52 -159 -58 -229 -42 -78 18 -130 54 -226
157 -144 154 -302 242 -478 265 -39 5 -219 5 -228 -1 -4 -2 -27 -7 -52 -11
-24 -4 -65 -15 -92 -25 -143 -54 -225 -136 -322 -320 -84 -160 -137 -208 -246
-224 -210 -31 -473 -187 -582 -345 l-17 -24 -38 31 c-43 34 -125 119 -194 202
-96 114 -208 302 -273 458 -33 79 -93 285 -102 349 -3 26 -7 50 -9 53 -8 13
-19 176 -19 275 0 132 8 230 29 335 3 14 7 36 10 49 2 13 16 64 30 113 164
571 605 1023 1180 1210 100 32 284 68 385 74 52 4 96 8 98 9 4 4 167 -3 237
-10z"/>
</g>
</svg>
