<?xml version="1.0" standalone="no"?>
<!DOCTYPE svg PUBLIC "-//W3C//DTD SVG 20010904//EN"
 "http://www.w3.org/TR/2001/REC-SVG-20010904/DTD/svg10.dtd">
<svg version="1.0" xmlns="http://www.w3.org/2000/svg"
 width="700.000000pt" height="700.000000pt" viewBox="0 0 700.000000 700.000000"
 preserveAspectRatio="xMidYMid meet">
<metadata>
Created by potrace 1.14, written by Peter Selinger 2001-2017
</metadata>
<g transform="translate(0.000000,700.000000) scale(0.100000,-0.100000)"
fill="#000000" stroke="none">
<path d="M1640 6715 c-204 -57 -358 -181 -449 -362 -46 -91 -65 -158 -76 -279
-4 -32 -11 -64 -18 -70 -7 -7 -37 -19 -67 -29 -215 -68 -385 -240 -458 -463
-34 -106 -39 -274 -10 -382 65 -248 267 -447 516 -510 42 -11 43 -12 29 -33
-29 -45 -134 -339 -152 -424 -2 -10 -9 -40 -15 -68 -6 -27 -16 -72 -20 -100
-5 -27 -11 -61 -14 -75 -18 -96 -29 -256 -30 -405 0 -420 90 -797 284 -1187
246 -492 690 -926 1195 -1168 102 -48 279 -117 372 -145 55 -16 68 -24 102
-69 144 -191 334 -287 591 -297 154 -7 281 -60 400 -169 75 -68 180 -133 264
-162 111 -40 134 -43 281 -42 111 1 141 5 206 27 134 45 212 92 320 193 36 34
81 66 100 72 19 6 86 14 149 17 63 3 129 8 145 11 191 31 317 65 423 115 35
16 65 29 68 29 3 0 40 23 81 51 82 55 151 121 189 181 55 86 135 142 239 167
94 23 211 87 279 154 84 83 110 139 110 236 0 98 -26 155 -110 237 -71 69
-146 112 -259 147 -107 33 -148 39 -322 42 -161 2 -208 13 -272 63 -19 15 -39
30 -44 33 -5 4 21 57 58 119 174 295 296 629 340 941 9 63 19 125 22 139 23
112 22 406 -2 578 -8 60 -15 107 -20 132 -3 14 -8 39 -11 55 -69 389 -286 843
-553 1160 -120 141 -134 156 -251 263 -391 356 -905 600 -1385 658 -27 4 -52
8 -55 9 -11 7 -228 19 -330 19 -99 0 -271 -10 -315 -18 -109 -20 -112 -20
-150 22 -114 127 -294 213 -472 226 -87 7 -104 16 -144 78 -55 84 -172 185
-273 233 -50 23 -102 45 -116 48 -14 3 -36 8 -50 12 -14 4 -74 8 -135 9 -87 2
-126 -2 -185 -19z m2025 -1309 c135 -14 248 -37 381 -78 l102 -31 -50 -53
c-115 -120 -181 -260 -202 -427 -7 -54 -19 -103 -26 -107 -6 -4 -53 -17 -103
-30 -386 -94 -666 -343 -742 -657 -25 -105 -17 -250 20 -362 67 -197 229 -372
449 -485 111 -56 189 -85 301 -111 129 -29 378 -37 505 -16 51 9 60 7 126 -24
212 -100 387 -136 644 -131 91 2 177 7 192 10 l27 6 -24 -65 c-66 -173 -156
-334 -271 -485 -91 -119 -140 -170 -162 -170 -40 0 -142 62 -222 134 -156 142
-290 198 -480 200 -127 1 -159 -3 -252 -35 -166 -58 -329 -203 -397 -354 -28
-61 -46 -72 -137 -79 -201 -15 -377 -112 -509 -280 l-31 -38 -64 28 c-91 40
-207 101 -258 135 -24 16 -45 29 -47 29 -3 0 -13 6 -22 14 -10 8 -47 37 -83
63 -146 109 -320 295 -431 463 -134 202 -250 496 -284 715 -3 22 -8 53 -11 69
-14 83 -21 359 -10 436 3 19 8 58 11 85 16 137 80 367 136 490 12 28 23 52 23
55 6 28 178 312 206 340 3 3 23 28 45 55 52 65 195 209 265 267 286 237 673
394 1045 424 39 4 71 7 72 8 4 3 215 -3 268 -8z"/>
</g>
</svg>
