<svg width="256" height="256" viewBox="0 0 256 256" fill="none" xmlns="http://www.w3.org/2000/svg">
<path fill-rule="evenodd" clip-rule="evenodd" d="M88.5315 21.9834C89.1129 22.9442 90.1606 23.5359 91.2835 23.5359C99.684 23.5359 107.145 27.5566 111.848 33.7786C80.5521 39.0663 54.435 59.5917 41.3931 87.4588C29.1096 85.4985 19.7227 74.8554 19.7227 62.0199C19.7227 49.8908 28.1047 39.7195 39.3921 36.9825C40.1644 36.7952 40.7139 36.0984 40.7139 35.3038C40.7139 21.0758 52.2479 9.54175 66.4759 9.54175C75.829 9.54175 84.018 14.5261 88.5315 21.9834Z" fill="#F9FBFF"/>
<mask id="mask0_395_77" style="mask-type:alpha" maskUnits="userSpaceOnUse" x="32" y="32" width="192" height="192">
<circle cx="127.859" cy="127.856" r="89.415" fill="white" stroke="#F9F5F0" stroke-width="12"/>
</mask>
<g mask="url(#mask0_395_77)">
<path d="M220.097 68.1337C218.334 68.1337 216.678 67.2855 215.575 65.9101C208.574 57.1849 196.124 51.3799 181.931 51.3799C160.042 51.3799 142.297 65.1885 142.297 82.2222V82.2222C142.297 83.1603 141.635 83.9842 140.712 84.1496C123.121 87.3 110.003 99.5613 110.003 114.207C110.003 131.241 127.748 145.049 149.637 145.049C152.976 145.049 156.218 144.728 159.315 144.123C166.375 148.061 175.028 150.38 184.377 150.38C199.357 150.38 212.551 144.427 220.264 135.395C223.273 136.222 226.511 136.672 229.884 136.672C241.835 136.672 252.09 131.021 256.477 122.964C276.666 122.916 293.003 114.411 293.003 103.926C293.003 93.4113 276.573 84.8875 256.305 84.8875C255.991 84.8875 255.679 84.8895 255.368 84.8936C248.793 74.9415 235.466 68.1337 220.097 68.1337V68.1337Z" fill="#F9FBFF"/>
</g>
<path fill-rule="evenodd" clip-rule="evenodd" d="M127.5 32C74.7568 32 32 74.7568 32 127.5C32 180.243 74.7568 223 127.5 223C180.243 223 223 180.243 223 127.5C223 74.7568 180.243 32 127.5 32ZM127.5 58C89.1162 58 58 89.1162 58 127.5C58 165.884 89.1162 197 127.5 197C165.884 197 197 165.884 197 127.5C197 89.1162 165.884 58 127.5 58Z" fill="url(#paint0_linear_395_77)"/>
<path d="M182.621 175.38C177.692 177.488 172.648 175.125 168.912 171.282C164.231 166.468 157.685 163.477 150.44 163.477C139.824 163.477 130.708 169.898 126.764 179.068C126.352 180.025 125.402 180.652 124.36 180.652V180.652C110.132 180.652 98.5977 192.186 98.5977 206.414C98.5977 220.642 110.132 232.176 124.36 232.176V232.176C129.828 232.176 135.561 234.385 139.473 238.206C144.518 243.134 151.418 246.17 159.027 246.17C167.204 246.17 174.562 242.664 179.679 237.073C180.999 235.631 182.835 234.721 184.79 234.721V234.721C201.522 234.721 215.761 228.808 221.062 220.549C222.789 217.857 225.34 215.458 228.455 214.729C237.671 212.573 244.265 206.816 244.265 200.053C244.265 191.446 233.585 184.469 220.411 184.469C219.486 184.469 218.572 184.503 217.674 184.57C214.564 184.802 211.387 184.227 208.938 182.296C203.506 178.014 197.743 173.471 189.38 173.471C187.496 173.471 185.073 174.331 182.621 175.38Z" fill="#F9FBFF"/>
<defs>
<linearGradient id="paint0_linear_395_77" x1="92" y1="190" x2="171" y2="71" gradientUnits="userSpaceOnUse">
<stop stop-color="#348FFE"/>
<stop offset="0.495" stop-color="#4FC69E"/>
<stop offset="1" stop-color="#FFD20A"/>
</linearGradient>
</defs>
</svg>
