<svg width="256" height="256" viewBox="0 0 256 256" fill="none" xmlns="http://www.w3.org/2000/svg">
<path fill-rule="evenodd" clip-rule="evenodd" d="M88.5315 21.9834C89.1129 22.9442 90.1606 23.5359 91.2835 23.5359C99.684 23.5359 107.145 27.5566 111.848 33.7786C80.5521 39.0663 54.435 59.5917 41.3931 87.4588C29.1096 85.4985 19.7227 74.8554 19.7227 62.0199C19.7227 49.8908 28.1047 39.7195 39.3921 36.9825C40.1644 36.7952 40.7139 36.0984 40.7139 35.3038C40.7139 21.0758 52.2479 9.54175 66.4759 9.54175C75.829 9.54175 84.018 14.5261 88.5315 21.9834Z" fill="#F9FBFF"/>
<mask id="mask0_395_77" style="mask-type:alpha" maskUnits="userSpaceOnUse" x="32" y="32" width="192" height="192">
<circle cx="127.859" cy="127.856" r="89.415" fill="white" stroke="#F9F5F0" stroke-width="12"/>
</mask>
<g mask="url(#mask0_395_77)">
<path d="M218.315 65.8769C216.48 65.8769 214.743 65.0738 213.434 63.7877C206.219 56.6986 193.591 52 179.219 52C156.795 52 138.618 63.4374 138.618 77.5462V77.5462C138.618 78.3143 138.065 78.9919 137.304 79.1C119.436 81.6398 112 91.8408 112 104.038C112 118.147 123.713 129.585 146.137 129.585C147.479 129.585 148.807 129.544 150.116 129.463C154.006 129.225 157.937 129.683 161.411 131.448C167.491 134.536 174.399 138 181.724 138C197.07 138 210.585 129.069 218.487 121.588C221.569 122.273 224.886 122.646 228.341 122.646C240.584 122.646 251.089 117.965 255.583 111.292C276.264 111.252 293 104.207 293 95.523C293 86.8139 276.169 79.7538 255.407 79.7538C255.086 79.7538 254.766 79.7555 254.447 79.7588C247.711 71.5157 234.06 65.8769 218.315 65.8769V65.8769Z" fill="#F9FBFF"/>
</g>
<path fill-rule="evenodd" clip-rule="evenodd" d="M127.5 32C74.7568 32 32 74.7568 32 127.5C32 180.243 74.7568 223 127.5 223C180.243 223 223 180.243 223 127.5C223 74.7568 180.243 32 127.5 32ZM127.5 63C91.3254 63 62 92.3253 62 128.5C62 164.675 91.3254 194 127.5 194C163.675 194 193 164.675 193 128.5C193 92.3253 163.675 63 127.5 63Z" fill="url(#paint0_linear_395_77)"/>
<path d="M182.621 175.38C177.692 177.488 172.648 175.125 168.912 171.282C164.231 166.468 157.685 163.477 150.44 163.477C139.824 163.477 130.708 169.898 126.764 179.068C126.352 180.025 125.402 180.652 124.36 180.652C110.132 180.652 98.5977 192.186 98.5977 206.414C98.5977 220.642 110.132 232.176 124.36 232.176C129.828 232.176 135.561 234.385 139.473 238.206C144.518 243.134 151.418 246.17 159.027 246.17C167.204 246.17 174.562 242.664 179.679 237.073C180.999 235.631 182.835 234.721 184.79 234.721C201.522 234.721 215.761 228.808 221.062 220.549C222.789 217.857 225.34 215.458 228.455 214.729C237.671 212.573 244.265 206.816 244.265 200.053C244.265 191.446 233.585 184.469 220.411 184.469C219.486 184.469 218.572 184.503 217.674 184.57C214.564 184.802 211.387 184.227 208.938 182.296C203.506 178.014 197.743 173.471 189.38 173.471C187.496 173.471 185.073 174.331 182.621 175.38Z" fill="#F9FBFF"/>
<defs>
<linearGradient id="paint0_linear_395_77" x1="92" y1="190" x2="171" y2="71" gradientUnits="userSpaceOnUse">
<stop stop-color="#348FFE"/>
<stop offset="0.495" stop-color="#4FC69E"/>
<stop offset="1" stop-color="#FFD20A"/>
</linearGradient>
</defs>
</svg>
